<?xml version="1.0" encoding="UTF-8" standalone="no"?>
<svg
   xmlns:dc="http://purl.org/dc/elements/1.1/"
   xmlns:cc="http://creativecommons.org/ns#"
   xmlns:rdf="http://www.w3.org/1999/02/22-rdf-syntax-ns#"
   xmlns:svg="http://www.w3.org/2000/svg"
   xmlns="http://www.w3.org/2000/svg"
   viewBox="0 0 30 30"
   version="1.1"
   id="svg4"
   width="30"
   height="30">
  <metadata
     id="metadata10">
    <rdf:RDF>
      <cc:Work
         rdf:about="">
        <dc:format>image/svg+xml</dc:format>
        <dc:type
           rdf:resource="http://purl.org/dc/dcmitype/StillImage" />
        <dc:title></dc:title>
      </cc:Work>
    </rdf:RDF>
  </metadata>
  <defs
     id="defs8" />
  <!--! Font Awesome Pro 6.1.1 by @fontawesome - https://fontawesome.com License - https://fontawesome.com/license (Commercial License) Copyright 2022 Fonticons, Inc. -->
  <path
     d="M 30,7.5 V 19.6875 C 30,25.374023 25.065625,30 19,30 H 16.6425 C 13.30375,30 10.16125,28.78125 7.805,26.567578 L 0.73625,19.940625 C 0.244125,19.482422 0,18.878906 0,18.28125 0,17.033203 1.071875,15.9375 2.5,15.9375 c 0.639375,0 1.279375,0.228867 1.7675,0.686719 L 8,20.121094 V 3.75 c 0,-1.0353516 0.895625,-1.875 2,-1.875 1.104375,0 2,0.8396484 2,1.875 l 0.0046,10.3125 C 12.0062,14.578125 12.45,15 13,15 c 0.55,0 1.004375,-0.419766 1.004375,-0.9375 L 14,1.875 C 14,0.83964844 14.895625,0 16,0 c 1.104375,0 2,0.83964844 2,1.875 l 0.003,12.1875 C 18.003,14.580234 18.447437,15 18.999875,15 19.552337,15 20,14.578125 20,14.0625 V 3.75 c 0,-1.0353516 0.895625,-1.875 2,-1.875 1.104375,0 2,0.8396484 2,1.875 l 0.0046,10.3125 C 24.0046,14.580234 24.447788,15 25.000225,15 25.552619,15 26,14.578125 26,14.0625 V 7.5 c 0,-1.0353516 0.895625,-1.875 2,-1.875 1.104375,0 2,0.8378906 2,1.875 z"
     id="path2"
     style="stroke-width:0.0605154" />
</svg>
